<svg width="20" height="20" viewBox="0 0 20 20" fill="none" xmlns="http://www.w3.org/2000/svg">
<path d="M6.24299 0.825623H3.70664C1.73133 0.825623 0.315016 2.6955 0.947264 4.56931C2.21096 8.31442 3.91031 11.6322 6.12448 13.8464C8.33865 16.0606 11.6565 17.76 15.4016 19.0236C17.2754 19.6559 19.1453 18.2396 19.1453 16.2643V13.7275C19.1453 13.0014 18.7518 12.3324 18.1171 11.9795L15.9075 10.751L15.7472 10.6711C15.2041 10.4299 14.5781 10.4417 14.0411 10.7102L12.0198 11.7197L11.9719 11.7047C11.892 11.6787 11.8023 11.6474 11.7041 11.6103C11.2016 11.4205 10.6982 11.1554 10.232 10.8059C10.0297 10.6543 9.83852 10.4894 9.65998 10.3109C9.47924 10.1301 9.31238 9.9363 9.15893 9.73097C8.81061 9.26492 8.54571 8.76155 8.35536 8.25903L8.26057 7.99115L8.24484 7.94171L9.25502 5.92346C9.55018 5.33324 9.53512 4.63533 9.21481 4.05831L7.9916 1.85489C7.63889 1.21963 6.96951 0.825623 6.24299 0.825623ZM3.70664 2.82562H6.243L7.46619 5.02898L6.28776 7.3859C6.18912 7.58318 6.15847 7.80753 6.20058 8.02404C6.34827 8.78333 6.75368 9.85356 7.55692 10.9283C7.76659 11.2088 7.99589 11.4752 8.24578 11.7251C8.4927 11.972 8.75562 12.1987 9.03227 12.4061C10.1093 13.2136 11.1821 13.6189 11.9436 13.7649C12.1593 13.8063 12.3827 13.7755 12.5791 13.6772L14.9356 12.499L17.1453 13.7275V16.2643C17.1453 16.8968 16.5932 17.3149 16.0411 17.1286C12.5632 15.9551 9.48495 14.3785 7.5387 12.4322C5.59244 10.4859 4.01579 7.40768 2.84229 3.92989C2.65597 3.37769 3.07413 2.82562 3.70664 2.82562Z" fill="#F3F3F3"/>
</svg>
