<svg width="23" height="18" viewBox="0 0 23 18" fill="none" xmlns="http://www.w3.org/2000/svg">
<path fill-rule="evenodd" clip-rule="evenodd" d="M18.103 0.792954C18.4935 0.40243 19.1266 0.40243 19.5172 0.792954L22.0172 3.29295C22.4077 3.68348 22.4077 4.31664 22.0172 4.70717L9.51717 17.2072C9.12664 17.5977 8.49348 17.5977 8.10295 17.2072L0.602952 9.70717C0.212427 9.31664 0.212427 8.68348 0.602952 8.29295L3.10295 5.79295C3.49348 5.40243 4.12664 5.40243 4.51717 5.79295L8.81006 10.0858L18.103 0.792954ZM18.8101 2.91428L9.51717 12.2072C9.12664 12.5977 8.49348 12.5977 8.10295 12.2072L3.81006 7.91427L2.72427 9.00006L8.81006 15.0858L19.8958 4.00006L18.8101 2.91428Z" fill="#F3F3F3"/>
</svg>
